<svg width="46" height="46" viewBox="0 0 46 46" fill="none" xmlns="http://www.w3.org/2000/svg">
<rect width="46" height="46" rx="10" fill="white"/>
<path d="M33.6666 17.6666H25.6666C23.4533 17.6666 21.6666 19.4533 21.6666 21.6666V31C21.6666 33.2133 23.4533 35 25.6666 35L24.3333 36.3333V37.6666H25.6666L28.3333 34.96H30.9999L33.6666 37.6666H34.9999V36.3333L33.6666 35C35.8799 35 37.6666 33.2133 37.6666 31V21.6666C37.6666 19.4533 35.8799 17.6666 33.6666 17.6666ZM25.6666 32.3333C24.9333 32.3333 24.3333 31.7333 24.3333 31C24.3333 30.2666 24.9333 29.6666 25.6666 29.6666C26.3999 29.6666 26.9999 30.2666 26.9999 31C26.9999 31.7333 26.3999 32.3333 25.6666 32.3333ZM33.6666 32.3333C32.9333 32.3333 32.3333 31.7333 32.3333 31C32.3333 30.2666 32.9333 29.6666 33.6666 29.6666C34.3999 29.6666 34.9999 30.2666 34.9999 31C34.9999 31.7333 34.3999 32.3333 33.6666 32.3333ZM34.9999 28.3333H24.3333V20.3333H34.9999V28.3333ZM15.8799 26.3733L16.3333 29.6666L14.9333 31.08L12.5866 26.84L8.33325 24.48L9.74659 23.04L13.0799 23.5333L18.2399 18.3733L8.33325 13.16L10.2266 11.28L22.4799 14.1066L27.6666 8.91996C28.4133 8.13996 29.7466 8.13996 30.4933 8.91996C31.2799 9.70663 31.2799 11 30.4933 11.7466L25.9066 16.3333H25.6666C22.7199 16.3333 20.3333 18.72 20.3333 21.6666V21.92L15.8799 26.3733Z" fill="#1964FF"/>
</svg>
