<svg width="32" height="32" viewBox="0 0 32 32" fill="none" xmlns="http://www.w3.org/2000/svg">
<rect width="32" height="32" fill="#1964FF"/>
<path d="M25.4559 11.2717H18.3645C16.4026 11.2717 14.8189 12.8555 14.8189 14.8174V23.0906C14.8189 25.0526 16.4026 26.6363 18.3645 26.6363L17.1827 27.8182V29.0001H18.3645L20.7283 26.6008H23.0921L25.4559 29.0001H26.6378V27.8182L25.4559 26.6363C27.4178 26.6363 29.0015 25.0526 29.0015 23.0906V14.8174C29.0015 12.8555 27.4178 11.2717 25.4559 11.2717ZM18.3645 24.2725C17.7145 24.2725 17.1827 23.7407 17.1827 23.0906C17.1827 22.4406 17.7145 21.9087 18.3645 21.9087C19.0146 21.9087 19.5464 22.4406 19.5464 23.0906C19.5464 23.7407 19.0146 24.2725 18.3645 24.2725ZM25.4559 24.2725C24.8058 24.2725 24.274 23.7407 24.274 23.0906C24.274 22.4406 24.8058 21.9087 25.4559 21.9087C26.1059 21.9087 26.6378 22.4406 26.6378 23.0906C26.6378 23.7407 26.1059 24.2725 25.4559 24.2725ZM26.6378 20.7268H17.1827V13.6355H26.6378V20.7268ZM9.68949 18.9895L10.0913 21.9087L8.85035 23.1615L6.77022 19.4031L3 17.3112L4.2528 16.0347L7.20752 16.472L11.7814 11.8981L3 7.27696L4.67828 5.6105L15.5398 8.1161L20.1374 3.51855C20.7992 2.82715 21.9811 2.82715 22.643 3.51855C23.3403 4.21587 23.3403 5.3623 22.643 6.02416L18.5773 10.0899H18.3645C15.7526 10.0899 13.637 12.2054 13.637 14.8174V15.042L9.68949 18.9895Z" fill="white"/>
</svg>
